<?xml version="1.0" standalone="no"?>
<!DOCTYPE svg PUBLIC "-//W3C//DTD SVG 20010904//EN"
 "http://www.w3.org/TR/2001/REC-SVG-20010904/DTD/svg10.dtd">
<svg version="1.0" xmlns="http://www.w3.org/2000/svg"
 width="614.000000pt" height="192.000000pt" viewBox="0 0 614.000000 192.000000"
 preserveAspectRatio="xMidYMid meet">

<g transform="translate(0.000000,192.000000) scale(0.100000,-0.100000)"
fill="#000000" stroke="none">
<path d="M3470 1865 c-18 -22 -8 -156 14 -190 29 -45 74 -65 144 -65 58 0 62
-2 62 -22 0 -84 -53 -157 -136 -188 -131 -48 -203 -8 -346 192 -134 188 -176
208 -463 219 -110 5 -236 12 -280 17 -265 29 -415 -93 -389 -318 5 -41 9 -120
9 -175 0 -55 3 -105 7 -111 4 -5 6 -24 6 -42 -1 -43 21 -73 78 -104 84 -45
123 -47 709 -44 459 2 563 5 627 19 214 44 273 117 313 382 22 140 20 137 61
129 49 -9 120 14 157 50 37 37 121 211 113 233 -4 9 -13 13 -23 9 -60 -23
-109 -26 -184 -11 -75 15 -80 15 -122 -3 l-43 -19 -33 23 c-49 33 -81 37 -145
19 -52 -15 -59 -15 -81 -1 -30 20 -39 20 -55 1z m270 -65 c42 -35 43 -35 80
-9 26 20 35 21 92 13 35 -4 91 -8 124 -8 l61 0 -14 -36 c-51 -122 -116 -171
-203 -151 -25 6 -48 11 -53 11 -14 0 -25 -45 -41 -161 -38 -275 -93 -337 -326
-370 -45 -7 -293 -11 -625 -12 -487 0 -555 2 -593 16 -70 27 -102 54 -102 88
0 16 2 29 4 29 2 0 33 -7 68 -17 78 -20 253 -22 397 -4 86 11 105 11 112 0 15
-24 22 0 9 31 -12 29 -38 45 -27 16 6 -16 -16 -21 -188 -36 -130 -13 -228 -7
-317 17 -73 20 -79 27 -67 83 8 34 6 71 -6 150 -26 173 3 256 110 309 61 31
178 39 297 21 46 -7 155 -14 243 -15 233 -3 265 -19 399 -198 92 -125 169
-200 223 -218 82 -27 220 14 278 82 32 39 44 68 54 131 12 73 -3 88 -87 88
-99 0 -124 22 -137 118 l-7 53 39 -6 c21 -4 49 -2 63 4 50 20 103 13 140 -19z"/>
<path d="M2462 1484 c-12 -8 -20 -20 -17 -25 4 -5 15 -3 28 6 34 24 53 18 91
-27 23 -28 36 -37 36 -26 0 9 -15 33 -34 52 -37 40 -68 46 -104 20z"/>
<path d="M2490 1386 c-18 -22 -5 -46 25 -46 23 0 26 4 23 27 -3 32 -29 41 -48
19z"/>
<path d="M3478 888 c-38 -7 -58 -15 -58 -24 0 -8 10 -14 23 -14 51 -1 67 -35
67 -150 l0 -91 -32 25 c-62 46 -141 51 -213 14 -121 -64 -147 -241 -51 -346
35 -39 96 -65 151 -65 54 0 85 12 122 46 26 23 26 23 39 -18 l9 -30 78 13 c53
10 77 18 77 28 0 8 -10 14 -23 14 -13 0 -32 6 -43 14 -18 14 -19 31 -22 305
l-3 291 -32 -1 c-18 -1 -58 -6 -89 -11z m-38 -273 c57 -30 70 -58 70 -160 0
-78 -3 -96 -21 -119 -90 -114 -239 -40 -239 119 0 127 97 208 190 160z"/>
<path d="M567 862 c-24 -27 -21 -59 8 -78 23 -15 27 -15 50 0 30 20 33 56 7
79 -24 22 -45 21 -65 -1z"/>
<path d="M4380 860 c-11 -11 -20 -27 -20 -35 0 -8 9 -24 20 -35 11 -11 27 -20
35 -20 8 0 24 9 35 20 11 11 20 27 20 35 0 8 -9 24 -20 35 -11 11 -27 20 -35
20 -8 0 -24 -9 -35 -20z"/>
<path d="M6037 744 c2 -7 11 -10 19 -7 19 7 18 10 -5 16 -13 3 -18 1 -14 -9z"/>
<path d="M6077 726 c-4 -9 -11 -15 -16 -12 -5 3 -11 -3 -14 -14 -3 -11 -3 -20
-1 -20 11 0 45 43 41 53 -2 6 -6 3 -10 -7z"/>
<path d="M1054 669 c-23 -6 -59 -25 -82 -44 l-40 -35 -7 40 c-8 45 -6 45 -106
29 -46 -8 -69 -16 -69 -25 0 -8 10 -14 24 -14 13 0 34 -8 47 -19 21 -17 24
-28 27 -122 5 -133 -4 -169 -46 -189 -17 -8 -32 -21 -32 -28 0 -18 241 -13
248 6 2 7 -5 12 -20 12 -12 0 -29 4 -36 8 -20 13 -32 71 -32 153 0 88 22 132
80 161 116 59 180 -21 164 -206 -8 -87 -25 -116 -69 -116 -16 0 -25 -6 -25
-15 0 -13 20 -15 137 -13 98 2 138 6 141 16 2 8 -7 12 -26 12 -54 0 -66 27
-72 164 -4 72 -11 131 -19 146 -23 43 -52 69 -85 75 -17 4 -38 8 -46 10 -8 1
-33 -1 -56 -6z"/>
<path d="M1567 665 c-139 -36 -206 -180 -143 -309 59 -121 204 -156 334 -80
38 23 51 42 36 56 -3 3 -26 -6 -52 -20 -119 -67 -246 -4 -247 121 l0 52 148 3
147 3 0 38 c0 99 -110 166 -223 136z m97 -46 c29 -13 54 -65 39 -80 -5 -5 -53
-8 -107 -7 l-97 3 23 35 c38 55 89 73 142 49z"/>
<path d="M2418 666 c-26 -7 -54 -19 -63 -26 -45 -38 -36 -104 12 -98 20 2 29
12 38 37 27 81 122 84 145 3 18 -65 16 -68 -56 -86 -85 -21 -135 -47 -168 -86
-35 -42 -35 -98 -2 -137 22 -25 31 -28 84 -28 52 0 67 5 106 32 25 18 46 28
46 22 0 -19 49 -59 74 -59 33 0 77 21 73 34 -2 6 -13 11 -24 11 -12 0 -25 4
-30 8 -4 5 -10 73 -13 152 -4 125 -8 147 -26 172 -38 51 -115 70 -196 49z
m142 -255 c0 -56 -2 -62 -32 -85 -46 -35 -83 -42 -113 -22 -53 35 -24 103 59
142 80 37 86 34 86 -35z"/>
<path d="M3022 672 c-12 -2 -38 -19 -58 -38 -20 -19 -38 -34 -39 -34 -2 0 -6
16 -9 35 -8 40 -15 42 -109 22 -62 -13 -79 -30 -36 -35 55 -6 64 -31 64 -172
0 -141 -9 -166 -64 -172 -14 -2 -25 -7 -24 -13 2 -6 59 -11 138 -13 116 -2
135 0 135 13 0 9 -9 15 -25 15 -14 0 -34 9 -45 20 -17 17 -20 33 -20 125 0
118 13 163 55 191 32 21 56 11 65 -26 8 -34 41 -53 64 -37 21 16 24 73 5 93
-18 18 -67 31 -97 26z"/>
<path d="M4877 669 c-21 -3 -58 -20 -83 -38 -24 -17 -47 -31 -49 -31 -3 0 -5
10 -5 23 0 47 -11 51 -94 37 -51 -9 -76 -17 -76 -26 0 -8 10 -14 23 -14 53 -1
67 -34 67 -169 0 -126 -10 -160 -52 -168 -16 -3 -27 -11 -25 -17 2 -7 47 -12
125 -14 104 -2 122 0 122 13 0 9 -9 15 -24 15 -43 0 -56 33 -56 143 0 116 13
148 70 177 47 24 81 25 120 5 40 -21 53 -70 49 -189 -4 -88 -6 -100 -28 -117
-13 -10 -34 -19 -48 -19 -15 0 -23 -5 -21 -12 3 -10 43 -14 141 -16 117 -2
137 0 137 13 0 9 -9 15 -23 15 -57 0 -75 50 -76 203 -1 86 -24 147 -64 168
-33 18 -87 26 -130 18z"/>
<path d="M5400 670 c-90 -16 -172 -98 -185 -184 -12 -78 28 -168 93 -213 41
-27 120 -45 164 -36 40 7 120 46 137 66 22 27 -7 30 -56 6 -126 -61 -243 2
-243 129 l0 52 144 0 c136 0 145 1 151 20 16 51 -50 142 -113 155 -49 11 -57
11 -92 5z m102 -70 c10 -12 18 -33 18 -46 0 -24 -1 -24 -100 -24 -62 0 -100 4
-100 10 0 19 32 61 59 76 36 20 101 11 123 -16z"/>
<path d="M5810 669 c-37 -8 -76 -46 -86 -84 -3 -13 2 -41 14 -67 15 -35 30
-49 82 -78 120 -66 145 -110 88 -153 -24 -18 -32 -19 -67 -9 -46 14 -101 72
-101 107 0 16 -6 25 -15 25 -12 0 -15 -16 -15 -84 0 -81 15 -123 27 -77 6 25
15 26 51 7 60 -31 133 -24 178 17 28 26 37 42 41 78 5 41 2 50 -26 81 -16 19
-57 49 -90 67 -33 17 -69 43 -80 56 -36 47 0 93 64 81 36 -7 59 -28 74 -69 18
-48 31 -30 31 43 0 66 -10 90 -24 54 -4 -11 -12 -14 -24 -9 -35 15 -88 21
-122 14z"/>
<path d="M518 663 c-28 -4 -40 -33 -15 -33 8 0 22 -9 33 -21 17 -19 19 -37 19
-156 0 -130 -1 -136 -24 -154 -13 -10 -34 -19 -48 -19 -15 0 -23 -5 -21 -12 3
-10 43 -14 141 -16 117 -2 137 0 137 13 0 9 -9 15 -23 15 -62 0 -76 47 -77
253 l0 137 -47 -1 c-27 -1 -60 -4 -75 -6z"/>
<path d="M4338 663 c-35 -5 -36 -26 -4 -41 33 -15 39 -50 34 -197 -3 -102 -5
-118 -22 -131 -11 -8 -30 -14 -43 -14 -14 0 -23 -6 -23 -15 0 -13 22 -15 135
-15 113 0 135 2 135 15 0 9 -9 15 -24 15 -15 0 -33 11 -45 26 -19 25 -21 40
-21 195 l0 169 -47 -1 c-27 -1 -60 -4 -75 -6z"/>
<path d="M0 645 c0 -8 9 -15 19 -15 30 0 50 -33 131 -214 89 -201 96 -204 148
-81 105 246 116 268 144 284 51 29 35 41 -52 41 -64 0 -80 -3 -80 -15 0 -8 9
-15 20 -15 37 0 33 -29 -16 -147 l-49 -115 -47 99 c-59 128 -64 159 -26 165
12 2 23 9 26 16 3 9 -23 12 -107 12 -92 0 -111 -3 -111 -15z"/>
<path d="M3820 645 c0 -8 6 -15 13 -15 27 0 57 -49 130 -210 56 -126 78 -166
93 -168 23 -3 19 -12 99 183 66 158 79 182 106 190 10 4 19 13 19 21 0 11 -17
14 -75 14 -57 0 -75 -3 -75 -14 0 -7 9 -16 20 -19 27 -7 25 -32 -9 -113 -16
-38 -36 -87 -45 -109 l-17 -40 -46 100 c-53 117 -59 158 -25 163 12 2 22 10
22 18 0 11 -21 14 -105 14 -87 0 -105 -3 -105 -15z"/>
<path d="M1820 641 c0 -5 10 -11 23 -15 28 -7 35 -18 123 -208 l73 -159 -20
-55 c-12 -30 -38 -75 -60 -100 -44 -51 -43 -48 -29 -75 14 -26 46 -24 64 4 8
12 61 139 117 282 56 143 109 270 117 283 8 12 25 25 38 28 49 12 21 24 -56
24 -75 0 -105 -11 -60 -23 29 -7 25 -30 -24 -152 l-44 -110 -37 80 c-74 161
-78 185 -35 185 11 0 20 5 20 10 0 6 -42 10 -105 10 -58 0 -105 -4 -105 -9z"/>
</g>
</svg>
